<svg width="16" height="16" viewBox="0 0 16 16" fill="none" xmlns="http://www.w3.org/2000/svg">
<path d="M15.8813 13.92L11.646 9.684C12.266 8.70733 12.624 7.55067 12.624 6.31133C12.6247 2.832 9.79267 0 6.312 0C2.83133 0 0 2.832 0 6.312C0 9.79267 2.83133 12.6247 6.312 12.6247C7.49067 12.6247 8.59267 12.3 9.538 11.736L13.802 16L15.8813 13.92ZM2.352 6.312C2.352 4.13 4.12867 2.35333 6.31133 2.35333C8.49467 2.35333 10.2713 4.12933 10.2713 6.312C10.2713 8.49533 8.49467 10.2713 6.31133 10.2713C4.12867 10.2713 2.352 8.49533 2.352 6.312Z" fill="#AA1D40"/>
</svg>
